<?xml version="1.0" encoding="UTF-8"?>
<!DOCTYPE svg
  PUBLIC '-//W3C//DTD SVG 1.1//EN'
  'http://www.w3.org/Graphics/SVG/1.1/DTD/svg11.dtd'>
<svg version="1.1" xmlns="http://www.w3.org/2000/svg" width="173.000mm" height="34.000mm">
    <!--Autogenerated with python-barcode 0.13.1-->
    <g id="barcode_group">
        <rect width="100%" height="100%" style="fill:white"/>
        <rect x="2.500mm" y="1.000mm" width="2.160mm" height="20.000mm" style="fill:black;"/>
        <rect x="4.660mm" y="1.000mm" width="1.080mm" height="20.000mm" style="fill:white;"/>
        <rect x="5.740mm" y="1.000mm" width="1.080mm" height="20.000mm" style="fill:black;"/>
        <rect x="6.820mm" y="1.000mm" width="2.160mm" height="20.000mm" style="fill:white;"/>
        <rect x="8.980mm" y="1.000mm" width="1.080mm" height="20.000mm" style="fill:black;"/>
        <rect x="10.060mm" y="1.000mm" width="4.320mm" height="20.000mm" style="fill:white;"/>
        <rect x="14.380mm" y="1.000mm" width="1.080mm" height="20.000mm" style="fill:black;"/>
        <rect x="15.460mm" y="1.000mm" width="3.240mm" height="20.000mm" style="fill:white;"/>
        <rect x="18.700mm" y="1.000mm" width="2.160mm" height="20.000mm" style="fill:black;"/>
        <rect x="20.860mm" y="1.000mm" width="3.240mm" height="20.000mm" style="fill:white;"/>
        <rect x="24.100mm" y="1.000mm" width="1.080mm" height="20.000mm" style="fill:black;"/>
        <rect x="25.180mm" y="1.000mm" width="1.080mm" height="20.000mm" style="fill:white;"/>
        <rect x="26.260mm" y="1.000mm" width="1.080mm" height="20.000mm" style="fill:black;"/>
        <rect x="27.340mm" y="1.000mm" width="2.160mm" height="20.000mm" style="fill:white;"/>
        <rect x="29.500mm" y="1.000mm" width="1.080mm" height="20.000mm" style="fill:black;"/>
        <rect x="30.580mm" y="1.000mm" width="2.160mm" height="20.000mm" style="fill:white;"/>
        <rect x="32.740mm" y="1.000mm" width="4.320mm" height="20.000mm" style="fill:black;"/>
        <rect x="37.060mm" y="1.000mm" width="1.080mm" height="20.000mm" style="fill:white;"/>
        <rect x="38.140mm" y="1.000mm" width="1.080mm" height="20.000mm" style="fill:black;"/>
        <rect x="39.220mm" y="1.000mm" width="1.080mm" height="20.000mm" style="fill:white;"/>
        <rect x="40.300mm" y="1.000mm" width="2.160mm" height="20.000mm" style="fill:black;"/>
        <rect x="42.460mm" y="1.000mm" width="2.160mm" height="20.000mm" style="fill:white;"/>
        <rect x="44.620mm" y="1.000mm" width="1.080mm" height="20.000mm" style="fill:black;"/>
        <rect x="45.700mm" y="1.000mm" width="4.320mm" height="20.000mm" style="fill:white;"/>
        <rect x="50.020mm" y="1.000mm" width="1.080mm" height="20.000mm" style="fill:black;"/>
        <rect x="51.100mm" y="1.000mm" width="4.320mm" height="20.000mm" style="fill:white;"/>
        <rect x="55.420mm" y="1.000mm" width="1.080mm" height="20.000mm" style="fill:black;"/>
        <rect x="56.500mm" y="1.000mm" width="2.160mm" height="20.000mm" style="fill:white;"/>
        <rect x="58.660mm" y="1.000mm" width="2.160mm" height="20.000mm" style="fill:black;"/>
        <rect x="60.820mm" y="1.000mm" width="1.080mm" height="20.000mm" style="fill:white;"/>
        <rect x="61.900mm" y="1.000mm" width="1.080mm" height="20.000mm" style="fill:black;"/>
        <rect x="62.980mm" y="1.000mm" width="2.160mm" height="20.000mm" style="fill:white;"/>
        <rect x="65.140mm" y="1.000mm" width="1.080mm" height="20.000mm" style="fill:black;"/>
        <rect x="66.220mm" y="1.000mm" width="2.160mm" height="20.000mm" style="fill:white;"/>
        <rect x="68.380mm" y="1.000mm" width="4.320mm" height="20.000mm" style="fill:black;"/>
        <rect x="72.700mm" y="1.000mm" width="1.080mm" height="20.000mm" style="fill:white;"/>
        <rect x="73.780mm" y="1.000mm" width="1.080mm" height="20.000mm" style="fill:black;"/>
        <rect x="74.860mm" y="1.000mm" width="4.320mm" height="20.000mm" style="fill:white;"/>
        <rect x="79.180mm" y="1.000mm" width="2.160mm" height="20.000mm" style="fill:black;"/>
        <rect x="81.340mm" y="1.000mm" width="1.080mm" height="20.000mm" style="fill:white;"/>
        <rect x="82.420mm" y="1.000mm" width="1.080mm" height="20.000mm" style="fill:black;"/>
        <rect x="83.500mm" y="1.000mm" width="2.160mm" height="20.000mm" style="fill:white;"/>
        <rect x="85.660mm" y="1.000mm" width="1.080mm" height="20.000mm" style="fill:black;"/>
        <rect x="86.740mm" y="1.000mm" width="4.320mm" height="20.000mm" style="fill:white;"/>
        <rect x="91.060mm" y="1.000mm" width="1.080mm" height="20.000mm" style="fill:black;"/>
        <rect x="92.140mm" y="1.000mm" width="1.080mm" height="20.000mm" style="fill:white;"/>
        <rect x="93.220mm" y="1.000mm" width="2.160mm" height="20.000mm" style="fill:black;"/>
        <rect x="95.380mm" y="1.000mm" width="2.160mm" height="20.000mm" style="fill:white;"/>
        <rect x="97.540mm" y="1.000mm" width="2.160mm" height="20.000mm" style="fill:black;"/>
        <rect x="99.700mm" y="1.000mm" width="4.320mm" height="20.000mm" style="fill:white;"/>
        <rect x="104.020mm" y="1.000mm" width="1.080mm" height="20.000mm" style="fill:black;"/>
        <rect x="105.100mm" y="1.000mm" width="2.160mm" height="20.000mm" style="fill:white;"/>
        <rect x="107.260mm" y="1.000mm" width="1.080mm" height="20.000mm" style="fill:black;"/>
        <rect x="108.340mm" y="1.000mm" width="1.080mm" height="20.000mm" style="fill:white;"/>
        <rect x="109.420mm" y="1.000mm" width="1.080mm" height="20.000mm" style="fill:black;"/>
        <rect x="110.500mm" y="1.000mm" width="1.080mm" height="20.000mm" style="fill:white;"/>
        <rect x="111.580mm" y="1.000mm" width="4.320mm" height="20.000mm" style="fill:black;"/>
        <rect x="115.900mm" y="1.000mm" width="2.160mm" height="20.000mm" style="fill:white;"/>
        <rect x="118.060mm" y="1.000mm" width="1.080mm" height="20.000mm" style="fill:black;"/>
        <rect x="119.140mm" y="1.000mm" width="2.160mm" height="20.000mm" style="fill:white;"/>
        <rect x="121.300mm" y="1.000mm" width="1.080mm" height="20.000mm" style="fill:black;"/>
        <rect x="122.380mm" y="1.000mm" width="3.240mm" height="20.000mm" style="fill:white;"/>
        <rect x="125.620mm" y="1.000mm" width="4.320mm" height="20.000mm" style="fill:black;"/>
        <rect x="129.940mm" y="1.000mm" width="1.080mm" height="20.000mm" style="fill:white;"/>
        <rect x="131.020mm" y="1.000mm" width="1.080mm" height="20.000mm" style="fill:black;"/>
        <rect x="132.100mm" y="1.000mm" width="1.080mm" height="20.000mm" style="fill:white;"/>
        <rect x="133.180mm" y="1.000mm" width="2.160mm" height="20.000mm" style="fill:black;"/>
        <rect x="135.340mm" y="1.000mm" width="4.320mm" height="20.000mm" style="fill:white;"/>
        <rect x="139.660mm" y="1.000mm" width="1.080mm" height="20.000mm" style="fill:black;"/>
        <rect x="140.740mm" y="1.000mm" width="1.080mm" height="20.000mm" style="fill:white;"/>
        <rect x="141.820mm" y="1.000mm" width="1.080mm" height="20.000mm" style="fill:black;"/>
        <rect x="142.900mm" y="1.000mm" width="2.160mm" height="20.000mm" style="fill:white;"/>
        <rect x="145.060mm" y="1.000mm" width="2.160mm" height="20.000mm" style="fill:black;"/>
        <rect x="147.220mm" y="1.000mm" width="3.240mm" height="20.000mm" style="fill:white;"/>
        <rect x="150.460mm" y="1.000mm" width="1.080mm" height="20.000mm" style="fill:black;"/>
        <rect x="151.540mm" y="1.000mm" width="1.080mm" height="20.000mm" style="fill:white;"/>
        <rect x="152.620mm" y="1.000mm" width="3.240mm" height="20.000mm" style="fill:black;"/>
        <rect x="155.860mm" y="1.000mm" width="1.080mm" height="20.000mm" style="fill:white;"/>
        <rect x="156.940mm" y="1.000mm" width="2.160mm" height="20.000mm" style="fill:black;"/>
        <rect x="159.100mm" y="1.000mm" width="3.240mm" height="20.000mm" style="fill:white;"/>
        <rect x="162.340mm" y="1.000mm" width="3.240mm" height="20.000mm" style="fill:black;"/>
        <rect x="165.580mm" y="1.000mm" width="1.080mm" height="20.000mm" style="fill:white;"/>
        <rect x="166.660mm" y="1.000mm" width="1.080mm" height="20.000mm" style="fill:black;"/>
        <rect x="167.740mm" y="1.000mm" width="1.080mm" height="20.000mm" style="fill:white;"/>
        <rect x="168.820mm" y="1.000mm" width="2.160mm" height="20.000mm" style="fill:black;"/>
        <text x="86.740mm" y="31.000mm" style="fill:black;font-size:12pt;text-anchor:middle;">Fredrickson</text>
    </g>
</svg>
