<?xml version="1.0" encoding="UTF-8"?>
<!DOCTYPE svg
  PUBLIC '-//W3C//DTD SVG 1.1//EN'
  'http://www.w3.org/Graphics/SVG/1.1/DTD/svg11.dtd'>
<svg version="1.1" xmlns="http://www.w3.org/2000/svg" width="90.000mm" height="34.000mm">
    <!--Autogenerated with python-barcode 0.13.1-->
    <g id="barcode_group">
        <rect width="100%" height="100%" style="fill:white"/>
        <rect x="2.500mm" y="1.000mm" width="2.160mm" height="20.000mm" style="fill:black;"/>
        <rect x="4.660mm" y="1.000mm" width="1.080mm" height="20.000mm" style="fill:white;"/>
        <rect x="5.740mm" y="1.000mm" width="1.080mm" height="20.000mm" style="fill:black;"/>
        <rect x="6.820mm" y="1.000mm" width="2.160mm" height="20.000mm" style="fill:white;"/>
        <rect x="8.980mm" y="1.000mm" width="1.080mm" height="20.000mm" style="fill:black;"/>
        <rect x="10.060mm" y="1.000mm" width="4.320mm" height="20.000mm" style="fill:white;"/>
        <rect x="14.380mm" y="1.000mm" width="1.080mm" height="20.000mm" style="fill:black;"/>
        <rect x="15.460mm" y="1.000mm" width="3.240mm" height="20.000mm" style="fill:white;"/>
        <rect x="18.700mm" y="1.000mm" width="1.080mm" height="20.000mm" style="fill:black;"/>
        <rect x="19.780mm" y="1.000mm" width="1.080mm" height="20.000mm" style="fill:white;"/>
        <rect x="20.860mm" y="1.000mm" width="2.160mm" height="20.000mm" style="fill:black;"/>
        <rect x="23.020mm" y="1.000mm" width="3.240mm" height="20.000mm" style="fill:white;"/>
        <rect x="26.260mm" y="1.000mm" width="1.080mm" height="20.000mm" style="fill:black;"/>
        <rect x="27.340mm" y="1.000mm" width="1.080mm" height="20.000mm" style="fill:white;"/>
        <rect x="28.420mm" y="1.000mm" width="2.160mm" height="20.000mm" style="fill:black;"/>
        <rect x="30.580mm" y="1.000mm" width="2.160mm" height="20.000mm" style="fill:white;"/>
        <rect x="32.740mm" y="1.000mm" width="1.080mm" height="20.000mm" style="fill:black;"/>
        <rect x="33.820mm" y="1.000mm" width="4.320mm" height="20.000mm" style="fill:white;"/>
        <rect x="38.140mm" y="1.000mm" width="1.080mm" height="20.000mm" style="fill:black;"/>
        <rect x="39.220mm" y="1.000mm" width="4.320mm" height="20.000mm" style="fill:white;"/>
        <rect x="43.540mm" y="1.000mm" width="2.160mm" height="20.000mm" style="fill:black;"/>
        <rect x="45.700mm" y="1.000mm" width="1.080mm" height="20.000mm" style="fill:white;"/>
        <rect x="46.780mm" y="1.000mm" width="1.080mm" height="20.000mm" style="fill:black;"/>
        <rect x="47.860mm" y="1.000mm" width="2.160mm" height="20.000mm" style="fill:white;"/>
        <rect x="50.020mm" y="1.000mm" width="2.160mm" height="20.000mm" style="fill:black;"/>
        <rect x="52.180mm" y="1.000mm" width="2.160mm" height="20.000mm" style="fill:white;"/>
        <rect x="54.340mm" y="1.000mm" width="1.080mm" height="20.000mm" style="fill:black;"/>
        <rect x="55.420mm" y="1.000mm" width="1.080mm" height="20.000mm" style="fill:white;"/>
        <rect x="56.500mm" y="1.000mm" width="1.080mm" height="20.000mm" style="fill:black;"/>
        <rect x="57.580mm" y="1.000mm" width="4.320mm" height="20.000mm" style="fill:white;"/>
        <rect x="61.900mm" y="1.000mm" width="2.160mm" height="20.000mm" style="fill:black;"/>
        <rect x="64.060mm" y="1.000mm" width="4.320mm" height="20.000mm" style="fill:white;"/>
        <rect x="68.380mm" y="1.000mm" width="1.080mm" height="20.000mm" style="fill:black;"/>
        <rect x="69.460mm" y="1.000mm" width="1.080mm" height="20.000mm" style="fill:white;"/>
        <rect x="70.540mm" y="1.000mm" width="1.080mm" height="20.000mm" style="fill:black;"/>
        <rect x="71.620mm" y="1.000mm" width="2.160mm" height="20.000mm" style="fill:white;"/>
        <rect x="73.780mm" y="1.000mm" width="2.160mm" height="20.000mm" style="fill:black;"/>
        <rect x="75.940mm" y="1.000mm" width="3.240mm" height="20.000mm" style="fill:white;"/>
        <rect x="79.180mm" y="1.000mm" width="3.240mm" height="20.000mm" style="fill:black;"/>
        <rect x="82.420mm" y="1.000mm" width="1.080mm" height="20.000mm" style="fill:white;"/>
        <rect x="83.500mm" y="1.000mm" width="1.080mm" height="20.000mm" style="fill:black;"/>
        <rect x="84.580mm" y="1.000mm" width="1.080mm" height="20.000mm" style="fill:white;"/>
        <rect x="85.660mm" y="1.000mm" width="2.160mm" height="20.000mm" style="fill:black;"/>
        <text x="45.160mm" y="31.000mm" style="fill:black;font-size:12pt;text-anchor:middle;">Beil</text>
    </g>
</svg>
