<?xml version="1.0" encoding="UTF-8"?>
<!DOCTYPE svg
  PUBLIC '-//W3C//DTD SVG 1.1//EN'
  'http://www.w3.org/Graphics/SVG/1.1/DTD/svg11.dtd'>
<svg version="1.1" xmlns="http://www.w3.org/2000/svg" width="102.000mm" height="34.000mm">
    <!--Autogenerated with python-barcode 0.13.1-->
    <g id="barcode_group">
        <rect width="100%" height="100%" style="fill:white"/>
        <rect x="2.500mm" y="1.000mm" width="2.160mm" height="20.000mm" style="fill:black;"/>
        <rect x="4.660mm" y="1.000mm" width="1.080mm" height="20.000mm" style="fill:white;"/>
        <rect x="5.740mm" y="1.000mm" width="1.080mm" height="20.000mm" style="fill:black;"/>
        <rect x="6.820mm" y="1.000mm" width="2.160mm" height="20.000mm" style="fill:white;"/>
        <rect x="8.980mm" y="1.000mm" width="1.080mm" height="20.000mm" style="fill:black;"/>
        <rect x="10.060mm" y="1.000mm" width="4.320mm" height="20.000mm" style="fill:white;"/>
        <rect x="14.380mm" y="1.000mm" width="2.160mm" height="20.000mm" style="fill:black;"/>
        <rect x="16.540mm" y="1.000mm" width="1.080mm" height="20.000mm" style="fill:white;"/>
        <rect x="17.620mm" y="1.000mm" width="1.080mm" height="20.000mm" style="fill:black;"/>
        <rect x="18.700mm" y="1.000mm" width="3.240mm" height="20.000mm" style="fill:white;"/>
        <rect x="21.940mm" y="1.000mm" width="1.080mm" height="20.000mm" style="fill:black;"/>
        <rect x="23.020mm" y="1.000mm" width="3.240mm" height="20.000mm" style="fill:white;"/>
        <rect x="26.260mm" y="1.000mm" width="1.080mm" height="20.000mm" style="fill:black;"/>
        <rect x="27.340mm" y="1.000mm" width="3.240mm" height="20.000mm" style="fill:white;"/>
        <rect x="30.580mm" y="1.000mm" width="4.320mm" height="20.000mm" style="fill:black;"/>
        <rect x="34.900mm" y="1.000mm" width="1.080mm" height="20.000mm" style="fill:white;"/>
        <rect x="35.980mm" y="1.000mm" width="1.080mm" height="20.000mm" style="fill:black;"/>
        <rect x="37.060mm" y="1.000mm" width="1.080mm" height="20.000mm" style="fill:white;"/>
        <rect x="38.140mm" y="1.000mm" width="1.080mm" height="20.000mm" style="fill:black;"/>
        <rect x="39.220mm" y="1.000mm" width="1.080mm" height="20.000mm" style="fill:white;"/>
        <rect x="40.300mm" y="1.000mm" width="2.160mm" height="20.000mm" style="fill:black;"/>
        <rect x="42.460mm" y="1.000mm" width="2.160mm" height="20.000mm" style="fill:white;"/>
        <rect x="44.620mm" y="1.000mm" width="1.080mm" height="20.000mm" style="fill:black;"/>
        <rect x="45.700mm" y="1.000mm" width="4.320mm" height="20.000mm" style="fill:white;"/>
        <rect x="50.020mm" y="1.000mm" width="1.080mm" height="20.000mm" style="fill:black;"/>
        <rect x="51.100mm" y="1.000mm" width="2.160mm" height="20.000mm" style="fill:white;"/>
        <rect x="53.260mm" y="1.000mm" width="4.320mm" height="20.000mm" style="fill:black;"/>
        <rect x="57.580mm" y="1.000mm" width="1.080mm" height="20.000mm" style="fill:white;"/>
        <rect x="58.660mm" y="1.000mm" width="1.080mm" height="20.000mm" style="fill:black;"/>
        <rect x="59.740mm" y="1.000mm" width="2.160mm" height="20.000mm" style="fill:white;"/>
        <rect x="61.900mm" y="1.000mm" width="2.160mm" height="20.000mm" style="fill:black;"/>
        <rect x="64.060mm" y="1.000mm" width="1.080mm" height="20.000mm" style="fill:white;"/>
        <rect x="65.140mm" y="1.000mm" width="4.320mm" height="20.000mm" style="fill:black;"/>
        <rect x="69.460mm" y="1.000mm" width="1.080mm" height="20.000mm" style="fill:white;"/>
        <rect x="70.540mm" y="1.000mm" width="2.160mm" height="20.000mm" style="fill:black;"/>
        <rect x="72.700mm" y="1.000mm" width="1.080mm" height="20.000mm" style="fill:white;"/>
        <rect x="73.780mm" y="1.000mm" width="3.240mm" height="20.000mm" style="fill:black;"/>
        <rect x="77.020mm" y="1.000mm" width="1.080mm" height="20.000mm" style="fill:white;"/>
        <rect x="78.100mm" y="1.000mm" width="2.160mm" height="20.000mm" style="fill:black;"/>
        <rect x="80.260mm" y="1.000mm" width="3.240mm" height="20.000mm" style="fill:white;"/>
        <rect x="83.500mm" y="1.000mm" width="1.080mm" height="20.000mm" style="fill:black;"/>
        <rect x="84.580mm" y="1.000mm" width="1.080mm" height="20.000mm" style="fill:white;"/>
        <rect x="85.660mm" y="1.000mm" width="2.160mm" height="20.000mm" style="fill:black;"/>
        <rect x="87.820mm" y="1.000mm" width="3.240mm" height="20.000mm" style="fill:white;"/>
        <rect x="91.060mm" y="1.000mm" width="3.240mm" height="20.000mm" style="fill:black;"/>
        <rect x="94.300mm" y="1.000mm" width="1.080mm" height="20.000mm" style="fill:white;"/>
        <rect x="95.380mm" y="1.000mm" width="1.080mm" height="20.000mm" style="fill:black;"/>
        <rect x="96.460mm" y="1.000mm" width="1.080mm" height="20.000mm" style="fill:white;"/>
        <rect x="97.540mm" y="1.000mm" width="2.160mm" height="20.000mm" style="fill:black;"/>
        <text x="51.100mm" y="31.000mm" style="fill:black;font-size:12pt;text-anchor:middle;">Goetz</text>
    </g>
</svg>
