<?xml version="1.0" encoding="UTF-8"?>
<!DOCTYPE svg
  PUBLIC '-//W3C//DTD SVG 1.1//EN'
  'http://www.w3.org/Graphics/SVG/1.1/DTD/svg11.dtd'>
<svg version="1.1" xmlns="http://www.w3.org/2000/svg" width="90.000mm" height="34.000mm">
    <!--Autogenerated with python-barcode 0.13.1-->
    <g id="barcode_group">
        <rect width="100%" height="100%" style="fill:white"/>
        <rect x="2.500mm" y="1.000mm" width="2.160mm" height="20.000mm" style="fill:black;"/>
        <rect x="4.660mm" y="1.000mm" width="1.080mm" height="20.000mm" style="fill:white;"/>
        <rect x="5.740mm" y="1.000mm" width="1.080mm" height="20.000mm" style="fill:black;"/>
        <rect x="6.820mm" y="1.000mm" width="2.160mm" height="20.000mm" style="fill:white;"/>
        <rect x="8.980mm" y="1.000mm" width="1.080mm" height="20.000mm" style="fill:black;"/>
        <rect x="10.060mm" y="1.000mm" width="4.320mm" height="20.000mm" style="fill:white;"/>
        <rect x="14.380mm" y="1.000mm" width="2.160mm" height="20.000mm" style="fill:black;"/>
        <rect x="16.540mm" y="1.000mm" width="1.080mm" height="20.000mm" style="fill:white;"/>
        <rect x="17.620mm" y="1.000mm" width="3.240mm" height="20.000mm" style="fill:black;"/>
        <rect x="20.860mm" y="1.000mm" width="3.240mm" height="20.000mm" style="fill:white;"/>
        <rect x="24.100mm" y="1.000mm" width="1.080mm" height="20.000mm" style="fill:black;"/>
        <rect x="25.180mm" y="1.000mm" width="1.080mm" height="20.000mm" style="fill:white;"/>
        <rect x="26.260mm" y="1.000mm" width="1.080mm" height="20.000mm" style="fill:black;"/>
        <rect x="27.340mm" y="1.000mm" width="3.240mm" height="20.000mm" style="fill:white;"/>
        <rect x="30.580mm" y="1.000mm" width="4.320mm" height="20.000mm" style="fill:black;"/>
        <rect x="34.900mm" y="1.000mm" width="1.080mm" height="20.000mm" style="fill:white;"/>
        <rect x="35.980mm" y="1.000mm" width="1.080mm" height="20.000mm" style="fill:black;"/>
        <rect x="37.060mm" y="1.000mm" width="1.080mm" height="20.000mm" style="fill:white;"/>
        <rect x="38.140mm" y="1.000mm" width="1.080mm" height="20.000mm" style="fill:black;"/>
        <rect x="39.220mm" y="1.000mm" width="4.320mm" height="20.000mm" style="fill:white;"/>
        <rect x="43.540mm" y="1.000mm" width="1.080mm" height="20.000mm" style="fill:black;"/>
        <rect x="44.620mm" y="1.000mm" width="2.160mm" height="20.000mm" style="fill:white;"/>
        <rect x="46.780mm" y="1.000mm" width="2.160mm" height="20.000mm" style="fill:black;"/>
        <rect x="48.940mm" y="1.000mm" width="1.080mm" height="20.000mm" style="fill:white;"/>
        <rect x="50.020mm" y="1.000mm" width="1.080mm" height="20.000mm" style="fill:black;"/>
        <rect x="51.100mm" y="1.000mm" width="4.320mm" height="20.000mm" style="fill:white;"/>
        <rect x="55.420mm" y="1.000mm" width="1.080mm" height="20.000mm" style="fill:black;"/>
        <rect x="56.500mm" y="1.000mm" width="2.160mm" height="20.000mm" style="fill:white;"/>
        <rect x="58.660mm" y="1.000mm" width="2.160mm" height="20.000mm" style="fill:black;"/>
        <rect x="60.820mm" y="1.000mm" width="1.080mm" height="20.000mm" style="fill:white;"/>
        <rect x="61.900mm" y="1.000mm" width="1.080mm" height="20.000mm" style="fill:black;"/>
        <rect x="62.980mm" y="1.000mm" width="1.080mm" height="20.000mm" style="fill:white;"/>
        <rect x="64.060mm" y="1.000mm" width="2.160mm" height="20.000mm" style="fill:black;"/>
        <rect x="66.220mm" y="1.000mm" width="2.160mm" height="20.000mm" style="fill:white;"/>
        <rect x="68.380mm" y="1.000mm" width="1.080mm" height="20.000mm" style="fill:black;"/>
        <rect x="69.460mm" y="1.000mm" width="4.320mm" height="20.000mm" style="fill:white;"/>
        <rect x="73.780mm" y="1.000mm" width="2.160mm" height="20.000mm" style="fill:black;"/>
        <rect x="75.940mm" y="1.000mm" width="3.240mm" height="20.000mm" style="fill:white;"/>
        <rect x="79.180mm" y="1.000mm" width="3.240mm" height="20.000mm" style="fill:black;"/>
        <rect x="82.420mm" y="1.000mm" width="1.080mm" height="20.000mm" style="fill:white;"/>
        <rect x="83.500mm" y="1.000mm" width="1.080mm" height="20.000mm" style="fill:black;"/>
        <rect x="84.580mm" y="1.000mm" width="1.080mm" height="20.000mm" style="fill:white;"/>
        <rect x="85.660mm" y="1.000mm" width="2.160mm" height="20.000mm" style="fill:black;"/>
        <text x="45.160mm" y="31.000mm" style="fill:black;font-size:12pt;text-anchor:middle;">Todd</text>
    </g>
</svg>
