<?xml version="1.0" encoding="UTF-8"?>
<!DOCTYPE svg
  PUBLIC '-//W3C//DTD SVG 1.1//EN'
  'http://www.w3.org/Graphics/SVG/1.1/DTD/svg11.dtd'>
<svg version="1.1" xmlns="http://www.w3.org/2000/svg" width="173.000mm" height="34.000mm">
    <!--Autogenerated with python-barcode 0.13.1-->
    <g id="barcode_group">
        <rect width="100%" height="100%" style="fill:white"/>
        <rect x="2.500mm" y="1.000mm" width="2.160mm" height="20.000mm" style="fill:black;"/>
        <rect x="4.660mm" y="1.000mm" width="1.080mm" height="20.000mm" style="fill:white;"/>
        <rect x="5.740mm" y="1.000mm" width="1.080mm" height="20.000mm" style="fill:black;"/>
        <rect x="6.820mm" y="1.000mm" width="2.160mm" height="20.000mm" style="fill:white;"/>
        <rect x="8.980mm" y="1.000mm" width="1.080mm" height="20.000mm" style="fill:black;"/>
        <rect x="10.060mm" y="1.000mm" width="4.320mm" height="20.000mm" style="fill:white;"/>
        <rect x="14.380mm" y="1.000mm" width="3.240mm" height="20.000mm" style="fill:black;"/>
        <rect x="17.620mm" y="1.000mm" width="1.080mm" height="20.000mm" style="fill:white;"/>
        <rect x="18.700mm" y="1.000mm" width="1.080mm" height="20.000mm" style="fill:black;"/>
        <rect x="19.780mm" y="1.000mm" width="3.240mm" height="20.000mm" style="fill:white;"/>
        <rect x="23.020mm" y="1.000mm" width="2.160mm" height="20.000mm" style="fill:black;"/>
        <rect x="25.180mm" y="1.000mm" width="1.080mm" height="20.000mm" style="fill:white;"/>
        <rect x="26.260mm" y="1.000mm" width="1.080mm" height="20.000mm" style="fill:black;"/>
        <rect x="27.340mm" y="1.000mm" width="2.160mm" height="20.000mm" style="fill:white;"/>
        <rect x="29.500mm" y="1.000mm" width="2.160mm" height="20.000mm" style="fill:black;"/>
        <rect x="31.660mm" y="1.000mm" width="4.320mm" height="20.000mm" style="fill:white;"/>
        <rect x="35.980mm" y="1.000mm" width="1.080mm" height="20.000mm" style="fill:black;"/>
        <rect x="37.060mm" y="1.000mm" width="1.080mm" height="20.000mm" style="fill:white;"/>
        <rect x="38.140mm" y="1.000mm" width="1.080mm" height="20.000mm" style="fill:black;"/>
        <rect x="39.220mm" y="1.000mm" width="4.320mm" height="20.000mm" style="fill:white;"/>
        <rect x="43.540mm" y="1.000mm" width="2.160mm" height="20.000mm" style="fill:black;"/>
        <rect x="45.700mm" y="1.000mm" width="1.080mm" height="20.000mm" style="fill:white;"/>
        <rect x="46.780mm" y="1.000mm" width="1.080mm" height="20.000mm" style="fill:black;"/>
        <rect x="47.860mm" y="1.000mm" width="2.160mm" height="20.000mm" style="fill:white;"/>
        <rect x="50.020mm" y="1.000mm" width="1.080mm" height="20.000mm" style="fill:black;"/>
        <rect x="51.100mm" y="1.000mm" width="2.160mm" height="20.000mm" style="fill:white;"/>
        <rect x="53.260mm" y="1.000mm" width="4.320mm" height="20.000mm" style="fill:black;"/>
        <rect x="57.580mm" y="1.000mm" width="1.080mm" height="20.000mm" style="fill:white;"/>
        <rect x="58.660mm" y="1.000mm" width="1.080mm" height="20.000mm" style="fill:black;"/>
        <rect x="59.740mm" y="1.000mm" width="2.160mm" height="20.000mm" style="fill:white;"/>
        <rect x="61.900mm" y="1.000mm" width="1.080mm" height="20.000mm" style="fill:black;"/>
        <rect x="62.980mm" y="1.000mm" width="2.160mm" height="20.000mm" style="fill:white;"/>
        <rect x="65.140mm" y="1.000mm" width="4.320mm" height="20.000mm" style="fill:black;"/>
        <rect x="69.460mm" y="1.000mm" width="1.080mm" height="20.000mm" style="fill:white;"/>
        <rect x="70.540mm" y="1.000mm" width="1.080mm" height="20.000mm" style="fill:black;"/>
        <rect x="71.620mm" y="1.000mm" width="2.160mm" height="20.000mm" style="fill:white;"/>
        <rect x="73.780mm" y="1.000mm" width="1.080mm" height="20.000mm" style="fill:black;"/>
        <rect x="74.860mm" y="1.000mm" width="4.320mm" height="20.000mm" style="fill:white;"/>
        <rect x="79.180mm" y="1.000mm" width="2.160mm" height="20.000mm" style="fill:black;"/>
        <rect x="81.340mm" y="1.000mm" width="1.080mm" height="20.000mm" style="fill:white;"/>
        <rect x="82.420mm" y="1.000mm" width="1.080mm" height="20.000mm" style="fill:black;"/>
        <rect x="83.500mm" y="1.000mm" width="2.160mm" height="20.000mm" style="fill:white;"/>
        <rect x="85.660mm" y="1.000mm" width="2.160mm" height="20.000mm" style="fill:black;"/>
        <rect x="87.820mm" y="1.000mm" width="4.320mm" height="20.000mm" style="fill:white;"/>
        <rect x="92.140mm" y="1.000mm" width="1.080mm" height="20.000mm" style="fill:black;"/>
        <rect x="93.220mm" y="1.000mm" width="1.080mm" height="20.000mm" style="fill:white;"/>
        <rect x="94.300mm" y="1.000mm" width="1.080mm" height="20.000mm" style="fill:black;"/>
        <rect x="95.380mm" y="1.000mm" width="2.160mm" height="20.000mm" style="fill:white;"/>
        <rect x="97.540mm" y="1.000mm" width="1.080mm" height="20.000mm" style="fill:black;"/>
        <rect x="98.620mm" y="1.000mm" width="2.160mm" height="20.000mm" style="fill:white;"/>
        <rect x="100.780mm" y="1.000mm" width="2.160mm" height="20.000mm" style="fill:black;"/>
        <rect x="102.940mm" y="1.000mm" width="1.080mm" height="20.000mm" style="fill:white;"/>
        <rect x="104.020mm" y="1.000mm" width="1.080mm" height="20.000mm" style="fill:black;"/>
        <rect x="105.100mm" y="1.000mm" width="4.320mm" height="20.000mm" style="fill:white;"/>
        <rect x="109.420mm" y="1.000mm" width="1.080mm" height="20.000mm" style="fill:black;"/>
        <rect x="110.500mm" y="1.000mm" width="2.160mm" height="20.000mm" style="fill:white;"/>
        <rect x="112.660mm" y="1.000mm" width="2.160mm" height="20.000mm" style="fill:black;"/>
        <rect x="114.820mm" y="1.000mm" width="4.320mm" height="20.000mm" style="fill:white;"/>
        <rect x="119.140mm" y="1.000mm" width="1.080mm" height="20.000mm" style="fill:black;"/>
        <rect x="120.220mm" y="1.000mm" width="1.080mm" height="20.000mm" style="fill:white;"/>
        <rect x="121.300mm" y="1.000mm" width="1.080mm" height="20.000mm" style="fill:black;"/>
        <rect x="122.380mm" y="1.000mm" width="2.160mm" height="20.000mm" style="fill:white;"/>
        <rect x="124.540mm" y="1.000mm" width="1.080mm" height="20.000mm" style="fill:black;"/>
        <rect x="125.620mm" y="1.000mm" width="1.080mm" height="20.000mm" style="fill:white;"/>
        <rect x="126.700mm" y="1.000mm" width="2.160mm" height="20.000mm" style="fill:black;"/>
        <rect x="128.860mm" y="1.000mm" width="4.320mm" height="20.000mm" style="fill:white;"/>
        <rect x="133.180mm" y="1.000mm" width="4.320mm" height="20.000mm" style="fill:black;"/>
        <rect x="137.500mm" y="1.000mm" width="1.080mm" height="20.000mm" style="fill:white;"/>
        <rect x="138.580mm" y="1.000mm" width="3.240mm" height="20.000mm" style="fill:black;"/>
        <rect x="141.820mm" y="1.000mm" width="1.080mm" height="20.000mm" style="fill:white;"/>
        <rect x="142.900mm" y="1.000mm" width="1.080mm" height="20.000mm" style="fill:black;"/>
        <rect x="143.980mm" y="1.000mm" width="1.080mm" height="20.000mm" style="fill:white;"/>
        <rect x="145.060mm" y="1.000mm" width="2.160mm" height="20.000mm" style="fill:black;"/>
        <rect x="147.220mm" y="1.000mm" width="1.080mm" height="20.000mm" style="fill:white;"/>
        <rect x="148.300mm" y="1.000mm" width="2.160mm" height="20.000mm" style="fill:black;"/>
        <rect x="150.460mm" y="1.000mm" width="3.240mm" height="20.000mm" style="fill:white;"/>
        <rect x="153.700mm" y="1.000mm" width="2.160mm" height="20.000mm" style="fill:black;"/>
        <rect x="155.860mm" y="1.000mm" width="1.080mm" height="20.000mm" style="fill:white;"/>
        <rect x="156.940mm" y="1.000mm" width="2.160mm" height="20.000mm" style="fill:black;"/>
        <rect x="159.100mm" y="1.000mm" width="3.240mm" height="20.000mm" style="fill:white;"/>
        <rect x="162.340mm" y="1.000mm" width="3.240mm" height="20.000mm" style="fill:black;"/>
        <rect x="165.580mm" y="1.000mm" width="1.080mm" height="20.000mm" style="fill:white;"/>
        <rect x="166.660mm" y="1.000mm" width="1.080mm" height="20.000mm" style="fill:black;"/>
        <rect x="167.740mm" y="1.000mm" width="1.080mm" height="20.000mm" style="fill:white;"/>
        <rect x="168.820mm" y="1.000mm" width="2.160mm" height="20.000mm" style="fill:black;"/>
        <text x="86.740mm" y="31.000mm" style="fill:black;font-size:12pt;text-anchor:middle;">Whittingham</text>
    </g>
</svg>
